<?xml version="1.0" standalone="no"?>
<!DOCTYPE svg PUBLIC "-//W3C//DTD SVG 20010904//EN"
 "http://www.w3.org/TR/2001/REC-SVG-20010904/DTD/svg10.dtd">
<svg version="1.0" xmlns="http://www.w3.org/2000/svg"
 width="400.000000pt" height="240.000000pt" viewBox="0 0 400.000000 240.000000"
 preserveAspectRatio="xMidYMid meet">

<g transform="translate(0.000000,240.000000) scale(0.100000,-0.100000)"
fill="#000000" stroke="none">
<path d="M2089 2032 c-159 -137 -229 -260 -229 -405 0 -92 21 -171 80 -294 26
-56 46 -104 42 -107 -3 -3 -30 -6 -59 -6 -80 0 -243 -22 -237 -32 3 -4 0 -8
-5 -8 -6 0 -54 -20 -105 -45 -90 -43 -223 -146 -211 -164 2 -4 -5 -22 -16 -40
-24 -39 -16 -56 8 -20 83 120 288 179 624 179 l95 0 56 -97 c31 -54 82 -150
113 -213 31 -63 54 -105 50 -93 -3 11 -10 45 -15 75 -5 29 -27 141 -50 248
-22 107 -43 209 -47 225 -3 17 -14 47 -25 68 -22 44 -15 60 43 102 62 46 109
58 216 53 95 -4 112 -8 288 -73 37 -13 -26 32 -95 69 -81 43 -176 72 -260 81
-59 5 -133 -3 -253 -31 -25 -6 -29 -2 -54 52 -32 70 -43 204 -24 281 17 64 56
145 97 198 19 25 33 45 31 45 -1 0 -27 -22 -58 -48z"/>
<path d="M2120 1771 c-38 -38 -46 -71 -25 -114 37 -79 158 -75 185 7 14 45 4
80 -32 111 -42 35 -91 34 -128 -4z"/>
<path d="M1618 1183 c6 -2 18 -2 25 0 6 3 1 5 -13 5 -14 0 -19 -2 -12 -5z"/>
<path d="M1568 1173 c7 -3 16 -2 19 1 4 3 -2 6 -13 5 -11 0 -14 -3 -6 -6z"/>
<path d="M1518 1163 c6 -2 18 -2 25 0 6 3 1 5 -13 5 -14 0 -19 -2 -12 -5z"/>
<path d="M1370 1120 c-8 -5 -10 -10 -5 -10 6 0 17 5 25 10 8 5 11 10 5 10 -5
0 -17 -5 -25 -10z"/>
<path d="M1304 1075 c-4 -8 -10 -13 -14 -10 -4 2 -16 -5 -26 -18 -19 -22 -19
-22 2 -4 11 9 23 14 27 11 3 -3 10 4 17 15 6 12 8 21 5 21 -3 0 -8 -7 -11 -15z"/>
<path d="M1226 963 c-6 -14 -5 -15 5 -6 7 7 10 15 7 18 -3 3 -9 -2 -12 -12z"/>
<path d="M1231 894 c0 -11 3 -14 6 -6 3 7 2 16 -1 19 -3 4 -6 -2 -5 -13z"/>
<path d="M1323 815 c0 -27 2 -38 4 -22 2 15 2 37 0 50 -2 12 -4 0 -4 -28z"/>
<path d="M1316 748 c10 -14 21 -24 23 -22 3 3 -6 15 -18 27 l-24 22 19 -27z"/>
</g>
</svg>
